# xmcd CD database file
# Generated: Mon Dez 16 01:52:35 2002 by KSCD
# 
# Track frame offsets:
#       150
#       13417
#       26760
#       40947
#       54830
#       68710
#       82732
#       97085
#       109145
#       122617
#       134805
#       149040
#       163940
#       177420
#       189725
#       203817
#       217895
#       230490
#       243265
#       257662
#       269727
#       284312
#
# Disc length: 3980 seconds
#
# Revision: 2
# Processed by: cddbd v1.4PL0 Copyright (c) Steve Scherf et al.
# Submitted via: Kscd 1.3.3
#
DISCID=520f8a16
DTITLE=Kokomo Arnold - Complete Recorded Works Vol 3, 1936-1937
DYEAR=1900
DGENRE=
TTITLE0=Grass Cutter Blues
TTITLE1=Telephone Blues
TTITLE2=Dark Angel
TTITLE3=Money Tree Man
TTITLE4=Delmar Avenue
TTITLE5=I'm Going Fishing Too
TTITLE6=Three Men
TTITLE7=Shake That Thing
TTITLE8=Try Some Of That
TTITLE9=My Gal's Been Foolin' Me
TTITLE10=Running Drunk Again
TTITLE11=Coffin Blues
TTITLE12=Lonesome Road Blues
TTITLE13=Mister Charlie
TTITLE14=Backfence Picket Blues
TTITLE15=Fool Man Blues
TTITLE16=Long And Tall
TTITLE17=Salty Dog
TTITLE18=Cold Winter Blues
TTITLE19=Sister Jane Cross The Hall
TTITLE20=Wild Water Blues
TTITLE21=Laugh And Grin Blues
EXTD=*HWREG BL 002C3
EXTT0=
EXTT1=
EXTT2=
EXTT3=
EXTT4=
EXTT5=
EXTT6=
EXTT7=
EXTT8=
EXTT9=
EXTT10=
EXTT11=
EXTT12=
EXTT13=
EXTT14=
EXTT15=
EXTT16=
EXTT17=
EXTT18=
EXTT19=
EXTT20=
EXTT21=
PLAYORDER=
